<svg aria-hidden="true" style="position: absolute; width: 0; height: 0; overflow: hidden;" version="1.1" xmlns="http://www.w3.org/2000/svg" xmlns:xlink="http://www.w3.org/1999/xlink">
<defs>

<symbol id="icon-logo" viewBox="0 0 41 32">
<path fill="#28a745" style="fill: var(--color1, #28a745)" d="M38.196 0.196c-3.861 0.221-11.532 1.019-16.268 3.924-0.328 0.2-0.513 0.557-0.513 0.929v25.676c0 0.815 0.89 1.331 1.64 0.952 4.872-2.457 11.921-3.128 15.405-3.31 1.19-0.062 2.115-1.018 2.115-2.164v-23.839c0-1.25-1.081-2.24-2.379-2.168zM18.649 4.121c-4.736-2.906-12.409-3.704-16.268-3.924-1.3-0.073-2.38 0.917-2.38 2.167v23.84c0 1.146 0.925 2.101 2.115 2.164 3.486 0.183 10.537 0.854 15.412 3.314 0.747 0.377 1.634-0.137 1.634-0.951v-25.694c0-0.002 0-0.005 0-0.007 0-0.383-0.203-0.72-0.507-0.907l-0.005-0.003z"></path>
</symbol>


<symbol id="icon-facebook" viewBox="0 0 32 32">
<path d="M31.5 16.343c0-8.563-6.938-15.5-15.5-15.5s-15.5 6.938-15.5 15.5c0 7.75 5.625 14.188 13.063 15.312v-10.812h-3.938v-4.5h3.938v-3.375c0-3.875 2.313-6.063 5.812-6.063 1.75 0 3.5 0.313 3.5 0.313v3.813h-1.937c-1.938 0-2.562 1.187-2.562 2.438v2.875h4.313l-0.688 4.5h-3.625v10.812c7.437-1.125 13.125-7.562 13.125-15.312z"></path>
</symbol>
<symbol id="icon-linkedin" viewBox="0 0 32 32">
<path d="M31.992 32v-0.001h0.008v-11.736c0-5.741-1.236-10.164-7.948-10.164-3.227 0-5.392 1.771-6.276 3.449h-0.093v-2.913h-6.364v21.364h6.627v-10.579c0-2.785 0.528-5.479 3.977-5.479 3.399 0 3.449 3.179 3.449 5.657v10.401h6.62z"></path>
<path d="M0.528 10.636h6.635v21.364h-6.635v-21.364z"></path>
<path d="M3.843 0c-2.121 0-3.843 1.721-3.843 3.843s1.721 3.879 3.843 3.879c2.121 0 3.843-1.757 3.843-3.879-0.001-2.121-1.723-3.843-3.843-3.843v0z"></path>
</symbol>
<symbol id="icon-twitter" viewBox="0 0 32 32">
<path d="M32 6.078c-1.19 0.522-2.458 0.868-3.78 1.036 1.36-0.812 2.398-2.088 2.886-3.626-1.268 0.756-2.668 1.29-4.16 1.588-1.204-1.282-2.92-2.076-4.792-2.076-3.632 0-6.556 2.948-6.556 6.562 0 0.52 0.044 1.020 0.152 1.496-5.454-0.266-10.28-2.88-13.522-6.862-0.566 0.982-0.898 2.106-0.898 3.316 0 2.272 1.17 4.286 2.914 5.452-1.054-0.020-2.088-0.326-2.964-0.808 0 0.020 0 0.046 0 0.072 0 3.188 2.274 5.836 5.256 6.446-0.534 0.146-1.116 0.216-1.72 0.216-0.42 0-0.844-0.024-1.242-0.112 0.85 2.598 3.262 4.508 6.13 4.57-2.232 1.746-5.066 2.798-8.134 2.798-0.538 0-1.054-0.024-1.57-0.090 2.906 1.874 6.35 2.944 10.064 2.944 12.072 0 18.672-10 18.672-18.668 0-0.29-0.010-0.57-0.024-0.848 1.302-0.924 2.396-2.078 3.288-3.406z"></path>
</symbol>
<symbol id="icon-youtube" viewBox="0 0 45 32">
<path d="M43.664 5.831c-0.486-1.944-2.025-3.484-3.889-3.97-3.484-0.972-17.257-0.972-17.257-0.972s-13.854 0-17.338 0.972c-1.863 0.486-3.403 2.025-3.889 3.97-0.972 3.403-0.972 10.695-0.972 10.695s0 7.211 0.972 10.694c0.486 1.944 2.025 3.403 3.889 3.889 3.484 0.891 17.338 0.891 17.338 0.891s13.773 0 17.257-0.891c1.863-0.486 3.403-1.944 3.889-3.889 0.972-3.484 0.972-10.694 0.972-10.694s0-7.292-0.972-10.694zM17.982 23.088v-13.125l11.505 6.563-11.505 6.563z"></path>
</symbol>

<symbol id="icon-group" viewBox="0 0 32 32">
<path fill="#fff" style="fill: var(--color1, #fff)" d="M22 6c0-3.314-2.686-6-6-6s-6 2.686-6 6v0c0 3.313 2.686 6 6 6s6-2.686 6-6v0zM14.599 15.068c-3.708-2.268-9.714-2.894-12.736-3.066-1.018-0.058-1.863 0.717-1.863 1.693v13.925c0 0.896 0.724 1.643 1.655 1.691 2.729 0.143 8.251 0.667 12.066 2.589 0.585 0.295 1.28-0.107 1.28-0.741v-15.375c0-0.001 0-0.003 0-0.005 0-0.3-0.159-0.564-0.398-0.71l-0.004-0.002zM30.138 12.003c-3.022 0.172-9.029 0.795-12.736 3.066-0.242 0.152-0.401 0.418-0.401 0.721 0 0.002 0 0.004 0 0.007v-0 15.362c0 0.637 0.697 1.040 1.284 0.744 3.815-1.92 9.333-2.445 12.061-2.587 0.931-0.048 1.655-0.795 1.655-1.691v-13.926c0-0.976-0.847-1.751-1.862-1.693z"></path>
</symbol>

<symbol id="icon-pencil" viewBox="0 0 32 32">
<path fill="#fff" style="fill: var(--color1, #fff)" d="M31.119 8.881l-2.881 2.881c-0.136 0.136-0.324 0.22-0.531 0.22s-0.395-0.084-0.531-0.22v0l-6.938-6.938c-0.136-0.136-0.22-0.324-0.22-0.531s0.084-0.395 0.22-0.531v0l2.881-2.881c0.544-0.542 1.294-0.877 2.122-0.877s1.578 0.335 2.122 0.877l3.756 3.756c0.544 0.542 0.881 1.293 0.881 2.122s-0.337 1.58-0.881 2.122l-0 0zM17.763 6.237l-16.412 16.412-1.326 7.595c-0.181 1.025 0.713 1.913 1.737 1.737l7.594-1.331 16.412-16.411c0.136-0.136 0.221-0.324 0.221-0.532s-0.084-0.396-0.221-0.532l-6.937-6.938c-0.137-0.136-0.326-0.221-0.535-0.221s-0.398 0.084-0.535 0.221l0-0zM7.756 21.243c-0.159-0.158-0.258-0.377-0.258-0.619s0.098-0.461 0.258-0.618l9.626-9.626c0.158-0.159 0.377-0.258 0.619-0.258s0.461 0.098 0.618 0.258l0 0c0.159 0.158 0.258 0.377 0.258 0.619s-0.099 0.461-0.258 0.619l-9.625 9.625c-0.158 0.159-0.377 0.258-0.619 0.258s-0.461-0.099-0.619-0.258l-0-0zM5.5 26.501h2.999v2.267l-4.030 0.707-1.944-1.944 0.706-4.031h2.269v3z"></path>
</symbol>

<symbol id="icon-university" viewBox="0 0 32 32">
<path fill="#fff" style="fill: var(--color1, #fff)" d="M31 8v1c0 0.276-0.224 0.5-0.5 0.5v0h-1.499v0.75c0 0.414-0.336 0.75-0.75 0.75v0h-24.501c-0.414 0-0.75-0.336-0.75-0.75v0-0.75h-1.5c-0.276 0-0.5-0.224-0.5-0.5v0-1c0-0.207 0.126-0.385 0.306-0.46l0.003-0.001 14.5-5.5c0.056-0.024 0.122-0.038 0.191-0.038s0.135 0.014 0.194 0.039l-0.003-0.001 14.501 5.5c0.182 0.077 0.308 0.254 0.308 0.461 0 0 0 0 0 0.001v-0zM29.5 27h-27.001c-0.828 0-1.499 0.671-1.499 1.499v0 1.001c0 0.276 0.224 0.5 0.5 0.5h28.999c0.276 0 0.5-0.224 0.5-0.5v0-1c0-0.828-0.671-1.499-1.499-1.499v0zM6 12v12h-2.251c-0.414 0-0.75 0.336-0.75 0.75v0 1.25h26v-1.25c0-0.414-0.336-0.75-0.75-0.75v0h-2.251v-12h-4v12h-4v-12h-4v12h-3.999v-12h-4.001z"></path>
</symbol>

</defs>
</svg>
